Love for All and Sharing is the first step to solving all the problems of humanity.

Websites I want to share.

   
http://www.shareintl.org/

   
http://www.lightmiddleway.com


Thank you very much

No credit for me...credit to EVERYONE for sharing

Video
Format : MPEG-4 Visual
Format profile : Streaming Video@L1
Format settings, BVOP : Yes
Format settings, QPel : No
Format settings, GMC : No warppoints
Format settings, Matrix : Custom
Muxing mode : Packed bitstream
Codec ID : XVID
Codec ID/Hint : XviD
Duration : 1h 43mn
Bit rate : 898 Kbps
Width : 640 pixels
Height : 272 pixels
Display aspect ratio : 2.35
Frame rate : 25.000 fps
Resolution : 24 bits
Colorimetry : 4:2:0
Scan type : Progressive
Bits/(Pixel*Frame) : 0.206
Stream size : 666 MiB (87%)
Writing library : XviD 1.2.1 (UTC 2008-12-04)
Audio
Format : MPEG Audio
Format version : Version 1
Format profile : Layer 3
Codec ID : 55
Codec ID/Hint : MP3
Duration : 1h 43mn
Bit rate mode : Constant
Bit rate : 128 Kbps
Channel(s) : 2 channels
Sampling rate : 48.0 KHz
Resolution : 16 bits
Stream size : 94.9 MiB (12%)
Alignment : Split accross interleaves
Interleave, duration : 40 ms (1.00 video frame)